<svg width="25" height="25" viewBox="0 0 25 25" fill="none" xmlns="http://www.w3.org/2000/svg">
<path d="M12.5 0C5.59625 0 0 5.59625 0 12.5C0 19.4037 5.59625 25 12.5 25C19.4037 25 25 19.4037 25 12.5C25 5.59625 19.4037 0 12.5 0ZM11.7407 3.90869H13.3643V6.30127C13.8255 6.32502 14.2598 6.37812 14.6436 6.48438C15.1361 6.62062 15.5523 6.83057 15.8936 7.11182C16.2348 7.39557 16.496 7.74877 16.6772 8.17627C16.856 8.60377 16.9458 9.10869 16.9458 9.68994C16.9458 9.97494 16.9167 10.2453 16.8555 10.5078C16.7967 10.7703 16.7022 11.0139 16.5747 11.2427C16.4447 11.4714 16.2827 11.679 16.084 11.8628C15.889 12.0478 15.6534 12.2006 15.3809 12.3193C15.6996 12.4106 15.9702 12.5506 16.1914 12.7344C16.4139 12.9194 16.5935 13.1327 16.731 13.3789C16.8685 13.6252 16.9663 13.8909 17.0288 14.1797C17.0913 14.4659 17.124 14.7622 17.124 15.0635C17.124 16.271 16.7917 17.1829 16.1279 17.7979C15.4867 18.3929 14.5618 18.6934 13.3643 18.7134V21.0278H11.7407V18.7207H9.12598V6.2793H11.7407V3.90869ZM11.6382 8.37158V11.4819H12.9468C13.448 11.4832 13.8176 11.3537 14.0601 11.0938C14.3013 10.835 14.4238 10.4549 14.4238 9.95361C14.4238 9.38986 14.3095 8.98648 14.082 8.74023C13.8545 8.49398 13.4837 8.37158 12.9712 8.37158H11.6382ZM11.6382 13.3105V16.6357H13.2446C13.4896 16.6357 13.6971 16.5961 13.8721 16.5161C14.0458 16.4374 14.1868 16.3218 14.2993 16.1768C14.4093 16.0305 14.4922 15.8627 14.5435 15.6689C14.5947 15.4752 14.6191 15.2606 14.6191 15.0269C14.6191 14.4969 14.5237 14.0795 14.3262 13.772C14.1312 13.4657 13.7976 13.3105 13.3301 13.3105H11.6382Z" fill="white"/>
</svg>
