<svg width="25" height="25" viewBox="0 0 25 25" fill="none" xmlns="http://www.w3.org/2000/svg">
<g filter="url(#filter0_i_35_192)">
<path fill-rule="evenodd" clip-rule="evenodd" d="M12.5 25C19.4036 25 25 19.4036 25 12.5C25 5.59644 19.4036 0 12.5 0C5.59644 0 0 5.59644 0 12.5C0 19.4036 5.59644 25 12.5 25ZM7.25274 4.99643H11.5642C11.5875 4.99643 11.6138 4.99632 11.643 4.99619C12.8898 4.99095 19.3401 4.96381 19.3401 12.6184C19.3401 20.5819 12.2765 19.9901 12.2765 19.9901H7.25281V13.3112H5.48199V11.6753H7.25274V4.99643ZM10.0821 17.2185H12.1609C12.1673 17.2185 12.1741 17.2185 12.1813 17.2185C12.7859 17.2193 16.5462 17.224 16.5405 12.6725C16.5348 8.06632 12.8057 7.76807 12.0646 7.76807H10.0821V11.6754H13.2002V13.3113H10.0821V17.2185Z" fill="#B5A12C"/>
</g>
<defs>
<filter id="filter0_i_35_192" x="0" y="0" width="25" height="29" filterUnits="userSpaceOnUse" color-interpolation-filters="sRGB">
<feFlood flood-opacity="0" result="BackgroundImageFix"/>
<feBlend mode="normal" in="SourceGraphic" in2="BackgroundImageFix" result="shape"/>
<feColorMatrix in="SourceAlpha" type="matrix" values="0 0 0 0 0 0 0 0 0 0 0 0 0 0 0 0 0 0 127 0" result="hardAlpha"/>
<feOffset dy="4"/>
<feGaussianBlur stdDeviation="2"/>
<feComposite in2="hardAlpha" operator="arithmetic" k2="-1" k3="1"/>
<feColorMatrix type="matrix" values="0 0 0 0 1 0 0 0 0 1 0 0 0 0 1 0 0 0 0.25 0"/>
<feBlend mode="normal" in2="shape" result="effect1_innerShadow_35_192"/>
</filter>
</defs>
</svg>
