<svg width="25" height="25" viewBox="0 0 25 25" fill="none" xmlns="http://www.w3.org/2000/svg">
<g filter="url(#filter0_i_35_227)">
<path fill-rule="evenodd" clip-rule="evenodd" d="M25 12.5C25 19.4036 19.4036 25 12.5 25C5.59644 25 0 19.4036 0 12.5C0 5.59644 5.59644 0 12.5 0C19.4036 0 25 5.59644 25 12.5ZM12.3268 16.2345V10.781L7 13.1143L12.3268 16.2345ZM12.327 4.00263V10.406L7.17188 12.6641L12.327 4.00263ZM12.6699 4V10.406L17.8975 12.696L12.6699 4ZM12.6699 16.2346V10.7809L18.0004 13.1159L12.6699 16.2346ZM12.3258 21.7179V17.3315L7.03491 14.2337L12.3258 21.7179ZM17.9609 14.2337L12.6699 21.7179V17.3315L17.9609 14.2337Z" fill="#8A8A8A"/>
</g>
<defs>
<filter id="filter0_i_35_227" x="0" y="0" width="25" height="29" filterUnits="userSpaceOnUse" color-interpolation-filters="sRGB">
<feFlood flood-opacity="0" result="BackgroundImageFix"/>
<feBlend mode="normal" in="SourceGraphic" in2="BackgroundImageFix" result="shape"/>
<feColorMatrix in="SourceAlpha" type="matrix" values="0 0 0 0 0 0 0 0 0 0 0 0 0 0 0 0 0 0 127 0" result="hardAlpha"/>
<feOffset dy="4"/>
<feGaussianBlur stdDeviation="2"/>
<feComposite in2="hardAlpha" operator="arithmetic" k2="-1" k3="1"/>
<feColorMatrix type="matrix" values="0 0 0 0 1 0 0 0 0 1 0 0 0 0 1 0 0 0 0.25 0"/>
<feBlend mode="normal" in2="shape" result="effect1_innerShadow_35_227"/>
</filter>
</defs>
</svg>
