<svg width="25" height="25" viewBox="0 0 25 25" fill="none" xmlns="http://www.w3.org/2000/svg">
<path d="M12.5 0C5.60707 0 0 5.60707 0 12.5C0 19.3929 5.60707 25 12.5 25C19.3929 25 25 19.3929 25 12.5C25 5.60707 19.3929 0 12.5 0ZM17.3913 19.0217H7.97935L9.59239 13.2614L7.24837 14.0989C7.18804 14.1201 7.12554 14.1304 7.06522 14.1304C6.84185 14.1304 6.63261 13.9918 6.5538 13.7696C6.45217 13.487 6.6 13.1761 6.88261 13.0755L9.95109 11.9799L11.9766 4.74511C12.0582 4.45598 12.3614 4.28804 12.6462 4.36848C12.9353 4.44891 13.1043 4.74946 13.0228 5.03804L11.2043 11.5321L14.4908 10.3582C14.7723 10.256 15.0842 10.4043 15.1848 10.687C15.2864 10.9696 15.1386 11.2804 14.856 11.381L10.8457 12.813L9.41196 17.9348H17.3913C17.6918 17.9348 17.9348 18.1777 17.9348 18.4783C17.9348 18.7788 17.6918 19.0217 17.3913 19.0217Z" fill="#355F9B"/>
</svg>
