<svg width="132" height="35" viewBox="0 0 132 35" fill="none" xmlns="http://www.w3.org/2000/svg">
<path d="M44.8312 25.2045C44.2364 25.2368 43.6481 25.0677 43.1612 24.7245C42.9578 24.5737 42.7941 24.3756 42.6843 24.1474C42.5745 23.9191 42.522 23.6676 42.5312 23.4145V14.1445C42.5264 14.1053 42.5305 14.0654 42.5434 14.028C42.5562 13.9906 42.5774 13.9567 42.6054 13.9287C42.6334 13.9007 42.6673 13.8795 42.7047 13.8667C42.7421 13.8538 42.782 13.8497 42.8212 13.8545H44.5012C44.6912 13.8545 44.7812 13.9545 44.7812 14.1445V22.6945C44.7812 23.0745 44.9512 23.2645 45.3012 23.2645C45.4496 23.2706 45.598 23.2538 45.7412 23.2145C45.9412 23.2145 46.0512 23.2745 46.0612 23.4545L46.2112 24.7045C46.2184 24.741 46.2177 24.7785 46.2092 24.8147C46.2007 24.8508 46.1845 24.8848 46.1617 24.9141C46.139 24.9435 46.1102 24.9677 46.0774 24.985C46.0445 25.0023 46.0083 25.0124 45.9712 25.0145C45.6032 25.1361 45.2187 25.2002 44.8312 25.2045Z" fill="white"/>
<path d="M54.2812 24.1347C53.4371 24.8322 52.3762 25.2137 51.2812 25.2137C50.1862 25.2137 49.1254 24.8322 48.2812 24.1347C47.5393 23.3857 47.123 22.374 47.123 21.3197C47.123 20.2654 47.5393 19.2537 48.2812 18.5047C49.127 17.8108 50.1872 17.4316 51.2812 17.4316C52.3752 17.4316 53.4354 17.8108 54.2812 18.5047C55.0061 19.2606 55.4108 20.2674 55.4108 21.3147C55.4108 22.362 55.0061 23.3688 54.2812 24.1247V24.1347ZM49.8612 22.8147C50.253 23.1696 50.7626 23.3661 51.2912 23.3661C51.8198 23.3661 52.3295 23.1696 52.7212 22.8147C53.0758 22.4071 53.271 21.885 53.271 21.3447C53.271 20.8045 53.0758 20.2824 52.7212 19.8747C52.3295 19.5199 51.8198 19.3233 51.2912 19.3233C50.7626 19.3233 50.253 19.5199 49.8612 19.8747C49.5067 20.2824 49.3114 20.8045 49.3114 21.3447C49.3114 21.885 49.5067 22.4071 49.8612 22.8147Z" fill="white"/>
<path d="M64.6609 17.6846C64.8509 17.6846 64.9409 17.7846 64.9409 17.9746V25.1446C64.9584 25.6286 64.8678 26.1103 64.6758 26.5548C64.4838 26.9994 64.1952 27.3956 63.8309 27.7146C63.0223 28.4041 61.9825 28.7614 60.9209 28.7146C59.9621 28.7483 59.016 28.4865 58.2109 27.9646C57.8671 27.7389 57.5734 27.4448 57.3481 27.1008C57.1227 26.7567 56.9705 26.37 56.9009 25.9646C56.9009 25.7646 56.9009 25.6746 57.1709 25.6746H58.8509C58.9222 25.677 58.9914 25.7001 59.0499 25.7409C59.1085 25.7817 59.154 25.8385 59.1809 25.9046C59.2899 26.2083 59.5071 26.4612 59.7909 26.6146C60.1368 26.7931 60.5218 26.8825 60.9109 26.8746C61.1457 26.8875 61.3807 26.8534 61.6022 26.7744C61.8237 26.6955 62.0272 26.5731 62.2009 26.4146C62.3596 26.2488 62.483 26.0525 62.5638 25.8377C62.6446 25.6229 62.681 25.3939 62.6709 25.1646V24.5346C62.0694 24.977 61.3373 25.2058 60.5909 25.1846C60.0685 25.2036 59.5477 25.1169 59.0596 24.9296C58.5716 24.7422 58.1265 24.4583 57.7509 24.0946C57.03 23.3488 56.627 22.352 56.627 21.3146C56.627 20.2773 57.03 19.2805 57.7509 18.5346C58.1283 18.1742 58.574 17.893 59.0617 17.7075C59.5495 17.522 60.0694 17.436 60.5909 17.4546C61.3589 17.4343 62.1107 17.6779 62.7209 18.1446V17.9846C62.7163 17.9463 62.7203 17.9074 62.7326 17.8708C62.7449 17.8343 62.7652 17.8009 62.792 17.7731C62.8188 17.7453 62.8515 17.7239 62.8876 17.7103C62.9238 17.6967 62.9625 17.6914 63.0009 17.6946L64.6609 17.6846ZM60.7809 23.4046C61.0385 23.4126 61.2948 23.3639 61.5315 23.2619C61.7682 23.16 61.9797 23.0073 62.1509 22.8146C62.4834 22.3853 62.6638 21.8576 62.6638 21.3146C62.6638 20.7716 62.4834 20.244 62.1509 19.8146C61.9803 19.6246 61.7701 19.4741 61.5352 19.3739C61.3002 19.2737 61.0462 19.2262 60.7909 19.2346C60.5303 19.2264 60.2711 19.2749 60.0311 19.3768C59.7911 19.4787 59.5761 19.6315 59.4009 19.8246C59.0326 20.2353 58.8389 20.7734 58.8609 21.3246C58.8429 21.8704 59.0323 22.4028 59.3909 22.8146C59.5665 23.0072 59.7816 23.1597 60.0215 23.2615C60.2614 23.3633 60.5204 23.4121 60.7809 23.4046Z" fill="white"/>
<path d="M73.5709 24.1348C72.7251 24.8287 71.6649 25.2079 70.5709 25.2079C69.4769 25.2079 68.4167 24.8287 67.5709 24.1348C66.8454 23.3772 66.4404 22.3688 66.4404 21.3198C66.4404 20.2709 66.8454 19.2624 67.5709 18.5048C68.4175 17.8127 69.4774 17.4346 70.5709 17.4346C71.6644 17.4346 72.7243 17.8127 73.5709 18.5048C74.2958 19.2607 74.7005 20.2675 74.7005 21.3148C74.7005 22.3621 74.2958 23.3689 73.5709 24.1248V24.1348ZM69.1409 22.8148C69.3326 22.9972 69.5586 23.1397 69.8058 23.2341C70.053 23.3285 70.3164 23.373 70.5809 23.3648C70.8437 23.3716 71.1053 23.3266 71.3507 23.2322C71.5961 23.1378 71.8204 22.996 72.0109 22.8148C72.3597 22.4044 72.5512 21.8834 72.5512 21.3448C72.5512 20.8062 72.3597 20.2852 72.0109 19.8748C71.8204 19.6937 71.5961 19.5518 71.3507 19.4575C71.1053 19.3631 70.8437 19.318 70.5809 19.3248C70.3164 19.3167 70.053 19.3611 69.8058 19.4555C69.5586 19.5499 69.3326 19.6925 69.1409 19.8748C68.7922 20.2852 68.6007 20.8062 68.6007 21.3448C68.6007 21.8834 68.7922 22.4044 69.1409 22.8148Z" fill="white"/>
<path d="M78.311 15.9848C78.0467 16.2162 77.7073 16.3437 77.356 16.3437C77.0047 16.3437 76.6654 16.2162 76.401 15.9848C76.2812 15.8717 76.1857 15.7353 76.1204 15.584C76.0552 15.4327 76.0215 15.2696 76.0215 15.1048C76.0215 14.94 76.0552 14.777 76.1204 14.6256C76.1857 14.4743 76.2812 14.3379 76.401 14.2248C76.6681 13.9992 77.0064 13.8755 77.356 13.8755C77.7056 13.8755 78.0439 13.9992 78.311 14.2248C78.4309 14.3379 78.5264 14.4743 78.5916 14.6256C78.6569 14.777 78.6905 14.94 78.6905 15.1048C78.6905 15.2696 78.6569 15.4327 78.5916 15.584C78.5264 15.7353 78.4309 15.8717 78.311 15.9848ZM78.521 25.2048C77.9266 25.234 77.3393 25.0652 76.851 24.7248C76.6507 24.5718 76.4898 24.373 76.382 24.1451C76.2741 23.9172 76.2223 23.6668 76.231 23.4148V17.9748C76.2262 17.9356 76.2303 17.8957 76.2432 17.8583C76.256 17.8209 76.2772 17.787 76.3052 17.759C76.3332 17.731 76.3671 17.7098 76.4045 17.697C76.4419 17.6841 76.4818 17.68 76.521 17.6848H78.201C78.391 17.6848 78.481 17.7848 78.481 17.9748V22.6948C78.481 23.0748 78.651 23.2648 78.991 23.2648C79.1427 23.2703 79.2943 23.2534 79.441 23.2148C79.641 23.2148 79.751 23.2748 79.761 23.4548L79.911 24.7048C79.9182 24.7413 79.9175 24.7788 79.909 24.815C79.9005 24.8511 79.8843 24.8851 79.8615 24.9144C79.8388 24.9438 79.81 24.968 79.7772 24.9853C79.7443 25.0026 79.7081 25.0127 79.671 25.0148C79.2998 25.1371 78.9119 25.2012 78.521 25.2048Z" fill="white"/>
<path d="M86.0908 17.4447C86.6156 17.424 87.1391 17.5089 87.6304 17.6944C88.1217 17.88 88.5708 18.1623 88.9508 18.5247C89.658 19.2837 90.0512 20.2824 90.0512 21.3197C90.0512 22.357 89.658 23.3558 88.9508 24.1147C88.5726 24.4804 88.1241 24.7655 87.6325 24.9528C87.1409 25.1402 86.6165 25.2259 86.0908 25.2047C85.342 25.2214 84.6081 24.9932 84.0008 24.5547V28.1647C84.0008 28.3547 83.9008 28.4447 83.7108 28.4447H82.0308C81.9925 28.4519 81.953 28.4496 81.9157 28.4381C81.8785 28.4265 81.8446 28.4061 81.817 28.3785C81.7895 28.3509 81.769 28.3171 81.7575 28.2798C81.7459 28.2426 81.7437 28.2031 81.7508 28.1647V19.9647C81.7626 19.8845 81.7554 19.8027 81.73 19.7257C81.7045 19.6488 81.6613 19.5788 81.604 19.5215C81.5467 19.4642 81.4768 19.4211 81.3998 19.3956C81.3229 19.3701 81.241 19.363 81.1608 19.3747H80.8308C80.6108 19.3747 80.5008 19.2947 80.5008 19.1347V17.9547C80.4956 17.8817 80.5156 17.8091 80.5575 17.7491C80.5993 17.689 80.6605 17.6451 80.7308 17.6247C81.0767 17.499 81.4428 17.438 81.8108 17.4447C82.1778 17.4122 82.5461 17.4901 82.8686 17.6682C83.191 17.8464 83.453 18.1168 83.6208 18.4447C83.9429 18.1189 84.3281 17.8622 84.7528 17.6902C85.1775 17.5183 85.6328 17.4347 86.0908 17.4447ZM84.5308 22.8147C84.7091 23.0011 84.9233 23.1494 85.1605 23.2507C85.3977 23.352 85.6529 23.4042 85.9108 23.4042C86.1687 23.4042 86.424 23.352 86.6611 23.2507C86.8983 23.1494 87.1125 23.0011 87.2908 22.8147C87.6664 22.3958 87.8637 21.8469 87.8408 21.2847C87.867 20.7221 87.6692 20.1719 87.2908 19.7547C87.1125 19.5684 86.8983 19.4201 86.6611 19.3188C86.424 19.2174 86.1687 19.1652 85.9108 19.1652C85.6529 19.1652 85.3977 19.2174 85.1605 19.3188C84.9233 19.4201 84.7091 19.5684 84.5308 19.7547C84.167 20.1793 83.9776 20.726 84.0008 21.2847C83.9805 21.843 84.1696 22.3887 84.5308 22.8147Z" fill="white"/>
<path d="M94.771 25.2046C93.8733 25.2415 92.9832 25.0268 92.201 24.5846C91.8872 24.3956 91.62 24.1383 91.4191 23.8319C91.2183 23.5255 91.0891 23.1778 91.041 22.8146C91.041 22.6146 91.111 22.5146 91.331 22.5146H92.801C92.8709 22.5174 92.9388 22.5393 92.997 22.5782C93.0552 22.617 93.1016 22.6711 93.131 22.7346C93.341 23.2746 93.891 23.5446 94.771 23.5446C95.078 23.5587 95.3836 23.4968 95.661 23.3646C95.7568 23.3214 95.8389 23.253 95.8988 23.1667C95.9587 23.0804 95.994 22.9794 96.001 22.8746C96.001 22.6146 95.841 22.4346 95.521 22.3146C95.1415 22.1883 94.7491 22.1044 94.351 22.0646C93.8795 22.0112 93.4119 21.9277 92.951 21.8146C92.5028 21.7132 92.0953 21.4798 91.781 21.1446C91.5959 20.9168 91.4597 20.6533 91.3807 20.3706C91.3018 20.0879 91.2819 19.7919 91.3222 19.5012C91.3626 19.2104 91.4623 18.931 91.6152 18.6805C91.7681 18.4299 91.9709 18.2135 92.211 18.0446C92.9318 17.5855 93.7775 17.3618 94.631 17.4046C95.4574 17.3767 96.275 17.5811 96.991 17.9946C97.2796 18.1581 97.528 18.3838 97.7183 18.6554C97.9086 18.927 98.0359 19.2376 98.091 19.5646C98.091 19.7646 98.001 19.8646 97.821 19.8646H96.341C96.2787 19.8683 96.2167 19.8531 96.1632 19.821C96.1097 19.7889 96.0671 19.7413 96.041 19.6846C95.9421 19.4478 95.7559 19.258 95.521 19.1546C95.256 19.016 94.96 18.9471 94.661 18.9546C94.3679 18.9387 94.0755 18.9972 93.811 19.1246C93.7178 19.1606 93.6376 19.2236 93.5805 19.3056C93.5235 19.3876 93.4923 19.4848 93.491 19.5846C93.4974 19.7214 93.5475 19.8525 93.6339 19.9587C93.7203 20.0649 93.8384 20.1405 93.971 20.1746C94.355 20.3194 94.7543 20.42 95.161 20.4746C95.6287 20.5362 96.0927 20.623 96.551 20.7346C96.9992 20.8361 97.4067 21.0694 97.721 21.4046C97.8892 21.5893 98.019 21.8054 98.1031 22.0406C98.1872 22.2757 98.2239 22.5252 98.211 22.7746C98.2196 23.1203 98.1385 23.4623 97.9755 23.7673C97.8125 24.0722 97.5732 24.3297 97.281 24.5146C96.5339 24.9943 95.6584 25.2349 94.771 25.2046Z" fill="white"/>
<path d="M109.144 25.02C109.15 25.0555 109.148 25.0918 109.14 25.1267C109.131 25.1617 109.116 25.1945 109.094 25.2234C109.073 25.2523 109.046 25.2766 109.015 25.2949C108.984 25.3132 108.95 25.3251 108.914 25.33C108.549 25.4492 108.168 25.5133 107.784 25.52C107.404 25.5594 107.02 25.5 106.67 25.3476C106.319 25.1952 106.014 24.9549 105.784 24.65C105.078 25.2573 104.164 25.5689 103.234 25.52C102.802 25.5399 102.371 25.4692 101.968 25.3125C101.565 25.1558 101.199 24.9165 100.894 24.61C100.591 24.2889 100.356 23.9099 100.203 23.4958C100.05 23.0817 99.9825 22.641 100.004 22.2V18.29C100.004 18.1 100.094 18 100.284 18H101.964C102.154 18 102.244 18.1 102.244 18.29V21.9C102.226 22.3498 102.379 22.7896 102.674 23.13C102.821 23.286 103 23.4086 103.198 23.4897C103.396 23.5708 103.61 23.6084 103.824 23.6C104.043 23.6096 104.262 23.5757 104.468 23.5001C104.674 23.4246 104.863 23.309 105.024 23.16C105.176 23.003 105.295 22.8164 105.372 22.6117C105.45 22.407 105.484 22.1886 105.474 21.97V18.29C105.474 18.1 105.564 18 105.754 18H107.454C107.644 18 107.734 18.1 107.734 18.29V23C107.734 23.39 107.904 23.58 108.234 23.58C108.389 23.586 108.544 23.5692 108.694 23.53C108.732 23.5194 108.772 23.5175 108.81 23.5245C108.849 23.5314 108.885 23.547 108.917 23.5701C108.949 23.5932 108.975 23.6232 108.994 23.6578C109.012 23.6924 109.022 23.7308 109.024 23.77L109.144 25.02Z" fill="white"/>
<path d="M124.671 24.7048C124.68 24.7406 124.681 24.778 124.674 24.8142C124.666 24.8503 124.651 24.8845 124.629 24.9141C124.607 24.9437 124.579 24.9681 124.546 24.9855C124.514 25.003 124.478 25.013 124.441 25.0148C124.069 25.1357 123.682 25.1998 123.291 25.2048C122.696 25.2355 122.109 25.0666 121.621 24.7248C121.41 24.5784 121.239 24.3823 121.122 24.1538C121.005 23.9253 120.946 23.6714 120.951 23.4148V21.0648C120.972 20.6164 120.822 20.1767 120.531 19.8348C120.391 19.6785 120.217 19.5553 120.024 19.474C119.83 19.3928 119.621 19.3555 119.411 19.3648C119.222 19.3577 119.034 19.3936 118.86 19.4698C118.687 19.546 118.534 19.6606 118.411 19.8048C118.147 20.1399 118.012 20.5587 118.031 20.9848V24.6748C118.031 24.8648 117.941 24.9648 117.751 24.9648H116.061C116.022 24.9697 115.982 24.9655 115.945 24.9527C115.907 24.9398 115.873 24.9186 115.845 24.8906C115.817 24.8627 115.796 24.8287 115.783 24.7913C115.77 24.7539 115.766 24.7141 115.771 24.6748V21.0648C115.793 20.6213 115.654 20.1847 115.381 19.8348C115.259 19.6878 115.106 19.5695 114.933 19.4883C114.761 19.4071 114.572 19.3649 114.381 19.3648C114.177 19.3566 113.974 19.3915 113.784 19.4674C113.594 19.5432 113.423 19.6582 113.281 19.8048C112.995 20.1292 112.848 20.553 112.871 20.9848V24.6748C112.876 24.7141 112.872 24.7539 112.859 24.7913C112.846 24.8287 112.825 24.8627 112.797 24.8906C112.769 24.9186 112.735 24.9398 112.698 24.9527C112.66 24.9655 112.62 24.9697 112.581 24.9648H110.951C110.761 24.9648 110.671 24.8648 110.671 24.6748V19.9648C110.683 19.8846 110.676 19.8028 110.65 19.7258C110.625 19.6489 110.582 19.5789 110.524 19.5216C110.467 19.4643 110.397 19.4212 110.32 19.3957C110.243 19.3702 110.161 19.3631 110.081 19.3748H109.751C109.531 19.3748 109.421 19.2948 109.421 19.1348V17.9548C109.416 17.8818 109.436 17.8092 109.478 17.7492C109.52 17.6891 109.581 17.6452 109.651 17.6248C109.997 17.4991 110.363 17.4381 110.731 17.4448C111.084 17.4147 111.439 17.4851 111.754 17.6479C112.069 17.8107 112.331 18.0592 112.511 18.3648C112.848 18.0451 113.248 17.7983 113.685 17.64C114.122 17.4817 114.587 17.4153 115.051 17.4448C115.502 17.4228 115.951 17.5073 116.363 17.6915C116.775 17.8757 117.137 18.1543 117.421 18.5048C117.752 18.1451 118.159 17.8635 118.612 17.6801C119.065 17.4968 119.553 17.4165 120.041 17.4448C120.477 17.4244 120.913 17.4947 121.321 17.6514C121.729 17.808 122.1 18.0475 122.411 18.3548C122.715 18.6753 122.95 19.0542 123.103 19.4685C123.256 19.8827 123.324 20.3238 123.301 20.7648V22.6948C123.301 23.0748 123.471 23.2648 123.791 23.2648C123.946 23.272 124.101 23.2552 124.251 23.2148C124.458 23.2148 124.568 23.2948 124.581 23.4548L124.671 24.7048Z" fill="white"/>
<path d="M7.41098 16.3847C8.14875 13.4194 9.85741 10.7861 12.2649 8.90424C14.6724 7.02234 17.6403 6 20.696 6C23.7517 6 26.7196 7.02234 29.1271 8.90424C31.5346 10.7861 33.2432 13.4194 33.981 16.3847H32.781C30.7567 16.3549 28.7739 16.9599 27.111 18.1147C27.015 18.1842 26.9148 18.2477 26.811 18.3047H26.671C26.5672 18.2477 26.467 18.1842 26.371 18.1147C24.6934 16.9866 22.7176 16.3841 20.696 16.3841C18.6744 16.3841 16.6986 16.9866 15.021 18.1147C14.925 18.1842 14.8248 18.2477 14.721 18.3047H14.581C14.4772 18.2477 14.377 18.1842 14.281 18.1147C12.6181 16.9599 10.6353 16.3549 8.61098 16.3847H7.41098ZM30.621 22.6547C31.237 22.175 32.0005 21.924 32.781 21.9447H34.391V18.7347H32.781C31.4062 18.7181 30.0629 19.146 28.951 19.9547C28.3253 20.416 27.5684 20.6649 26.791 20.6649C26.0136 20.6649 25.2567 20.416 24.631 19.9547C23.4909 19.1611 22.1351 18.7356 20.746 18.7356C19.3569 18.7356 18.0011 19.1611 16.861 19.9547C16.2353 20.416 15.4784 20.6649 14.701 20.6649C13.9236 20.6649 13.1667 20.416 12.541 19.9547C11.4154 19.1356 10.0528 18.7072 8.66098 18.7347H7.00098V21.9447H8.61098C9.39149 21.924 10.155 22.175 10.771 22.6547C11.909 23.4489 13.2633 23.8747 14.651 23.8747C16.0387 23.8747 17.393 23.4489 18.531 22.6547C19.1478 22.1765 19.9107 21.9257 20.691 21.9447C21.4718 21.9223 22.2358 22.1735 22.851 22.6547C23.9911 23.4484 25.3469 23.8738 26.736 23.8738C28.1251 23.8738 29.4809 23.4484 30.621 22.6547ZM30.621 28.3947C31.237 27.915 32.0005 27.664 32.781 27.6847H34.391V24.4747H32.781C31.4062 24.4581 30.0629 24.886 28.951 25.6947C28.3253 26.156 27.5684 26.4049 26.791 26.4049C26.0136 26.4049 25.2567 26.156 24.631 25.6947C23.4909 24.9011 22.1351 24.4757 20.746 24.4757C19.3569 24.4757 18.0011 24.9011 16.861 25.6947C16.2353 26.156 15.4784 26.4049 14.701 26.4049C13.9236 26.4049 13.1667 26.156 12.541 25.6947C11.4154 24.8757 10.0528 24.4472 8.66098 24.4747H7.00098V27.6847H8.61098C9.39149 27.664 10.155 27.915 10.771 28.3947C11.909 29.1889 13.2633 29.6147 14.651 29.6147C16.0387 29.6147 17.393 29.1889 18.531 28.3947C19.1478 27.9165 19.9107 27.6657 20.691 27.6847C21.4718 27.6623 22.2358 27.9135 22.851 28.3947C23.9911 29.1884 25.3469 29.6138 26.736 29.6138C28.1251 29.6138 29.4809 29.1884 30.621 28.3947Z" fill="url(#paint0_linear_35_328)"/>
<path d="M7.41098 16.3847C8.14875 13.4194 9.85741 10.7861 12.2649 8.90424C14.6724 7.02234 17.6403 6 20.696 6C23.7517 6 26.7196 7.02234 29.1271 8.90424C31.5346 10.7861 33.2432 13.4194 33.981 16.3847H32.781C30.7567 16.3549 28.7739 16.9599 27.111 18.1147C27.015 18.1842 26.9148 18.2477 26.811 18.3047H26.671C26.5672 18.2477 26.467 18.1842 26.371 18.1147C24.6934 16.9866 22.7176 16.3841 20.696 16.3841C18.6744 16.3841 16.6986 16.9866 15.021 18.1147C14.925 18.1842 14.8248 18.2477 14.721 18.3047H14.581C14.4772 18.2477 14.377 18.1842 14.281 18.1147C12.6181 16.9599 10.6353 16.3549 8.61098 16.3847H7.41098ZM30.621 22.6547C31.237 22.175 32.0005 21.924 32.781 21.9447H34.391V18.7347H32.781C31.4062 18.7181 30.0629 19.146 28.951 19.9547C28.3253 20.416 27.5684 20.6649 26.791 20.6649C26.0136 20.6649 25.2567 20.416 24.631 19.9547C23.4909 19.1611 22.1351 18.7356 20.746 18.7356C19.3569 18.7356 18.0011 19.1611 16.861 19.9547C16.2353 20.416 15.4784 20.6649 14.701 20.6649C13.9236 20.6649 13.1667 20.416 12.541 19.9547C11.4154 19.1356 10.0528 18.7072 8.66098 18.7347H7.00098V21.9447H8.61098C9.39149 21.924 10.155 22.175 10.771 22.6547C11.909 23.4489 13.2633 23.8747 14.651 23.8747C16.0387 23.8747 17.393 23.4489 18.531 22.6547C19.1478 22.1765 19.9107 21.9257 20.691 21.9447C21.4718 21.9223 22.2358 22.1735 22.851 22.6547C23.9911 23.4484 25.3469 23.8738 26.736 23.8738C28.1251 23.8738 29.4809 23.4484 30.621 22.6547ZM30.621 28.3947C31.237 27.915 32.0005 27.664 32.781 27.6847H34.391V24.4747H32.781C31.4062 24.4581 30.0629 24.886 28.951 25.6947C28.3253 26.156 27.5684 26.4049 26.791 26.4049C26.0136 26.4049 25.2567 26.156 24.631 25.6947C23.4909 24.9011 22.1351 24.4757 20.746 24.4757C19.3569 24.4757 18.0011 24.9011 16.861 25.6947C16.2353 26.156 15.4784 26.4049 14.701 26.4049C13.9236 26.4049 13.1667 26.156 12.541 25.6947C11.4154 24.8757 10.0528 24.4472 8.66098 24.4747H7.00098V27.6847H8.61098C9.39149 27.664 10.155 27.915 10.771 28.3947C11.909 29.1889 13.2633 29.6147 14.651 29.6147C16.0387 29.6147 17.393 29.1889 18.531 28.3947C19.1478 27.9165 19.9107 27.6657 20.691 27.6847C21.4718 27.6623 22.2358 27.9135 22.851 28.3947C23.9911 29.1884 25.3469 29.6138 26.736 29.6138C28.1251 29.6138 29.4809 29.1884 30.621 28.3947Z" fill="url(#paint1_radial_35_328)" fill-opacity="0.2"/>
<defs>
<linearGradient id="paint0_linear_35_328" x1="20.696" y1="4.71193" x2="36.5165" y2="9.80198" gradientUnits="userSpaceOnUse">
<stop stop-color="#E7C577"/>
<stop offset="0.294792" stop-color="#FFE9B1"/>
<stop offset="0.64375" stop-color="#E9C47A"/>
<stop offset="1" stop-color="#D8B66D"/>
</linearGradient>
<radialGradient id="paint1_radial_35_328" cx="0" cy="0" r="1" gradientUnits="userSpaceOnUse" gradientTransform="translate(20.696 17.8074) rotate(90) scale(11.8074 13.695)">
<stop stop-color="white"/>
<stop offset="1" stop-color="white" stop-opacity="0"/>
</radialGradient>
</defs>
</svg>
