<svg width="113" height="21" viewBox="0 0 113 21" fill="none" xmlns="http://www.w3.org/2000/svg">
<path d="M9.56526 2.98868C9.86121 2.06032 11.1748 2.06032 11.4708 2.98868L12.5135 6.25941C12.6457 6.67412 13.0309 6.95568 13.4662 6.95568L16.8803 6.95568C17.8444 6.95568 18.2502 8.18557 17.4754 8.75932L14.6808 10.8288C14.337 11.0834 14.1932 11.5285 14.3231 11.9361L15.3828 15.2602C15.6776 16.1849 14.6149 16.9452 13.8349 16.3676L11.1131 14.352C10.7596 14.0902 10.2765 14.0902 9.92291 14.352L7.2011 16.3676C6.42115 16.9452 5.35846 16.1849 5.65323 15.2602L6.71291 11.9361C6.84286 11.5285 6.69909 11.0834 6.35526 10.8288L3.56065 8.75932C2.78585 8.18557 3.19166 6.95568 4.15576 6.95568L7.56983 6.95568C8.00511 6.95568 8.39038 6.67412 8.52259 6.25941L9.56526 2.98868Z" fill="url(#paint0_linear_36_296)"/>
<path d="M32.6102 2.98868C32.9061 2.06032 34.2198 2.06032 34.5157 2.98868L35.5584 6.25941C35.6906 6.67412 36.0759 6.95568 36.5111 6.95568L39.9252 6.95568C40.8893 6.95568 41.2951 8.18557 40.5203 8.75932L37.7257 10.8288C37.3819 11.0834 37.2381 11.5285 37.3681 11.9361L38.4277 15.2602C38.7225 16.1849 37.6598 16.9452 36.8799 16.3676L34.1581 14.352C33.8045 14.0902 33.3214 14.0902 32.9678 14.352L30.246 16.3676C29.4661 16.9452 28.4034 16.1849 28.6982 15.2602L29.7578 11.9361C29.8878 11.5285 29.744 11.0834 29.4002 10.8288L26.6056 8.75932C25.8308 8.18557 26.2366 6.95568 27.2007 6.95568L30.6148 6.95568C31.05 6.95568 31.4353 6.67412 31.5675 6.25941L32.6102 2.98868Z" fill="url(#paint1_linear_36_296)"/>
<path d="M55.6551 2.98868C55.9511 2.06032 57.2647 2.06032 57.5606 2.98868L58.6033 6.25941C58.7355 6.67412 59.1208 6.95568 59.5561 6.95568L62.9701 6.95568C63.9342 6.95568 64.34 8.18557 63.5652 8.75932L60.7706 10.8288C60.4268 11.0834 60.283 11.5285 60.413 11.9361L61.4727 15.2602C61.7674 16.1849 60.7047 16.9452 59.9248 16.3676L57.203 14.352C56.8494 14.0902 56.3663 14.0902 56.0128 14.352L53.2909 16.3676C52.511 16.9452 51.4483 16.1849 51.7431 15.2602L52.8028 11.9361C52.9327 11.5285 52.7889 11.0834 52.4451 10.8288L49.6505 8.75932C48.8757 8.18557 49.2815 6.95568 50.2456 6.95568L53.6597 6.95568C54.095 6.95568 54.4802 6.67412 54.6124 6.25941L55.6551 2.98868Z" fill="url(#paint2_linear_36_296)"/>
<path d="M78.7 2.98868C78.996 2.06032 80.3096 2.06032 80.6055 2.98868L81.6482 6.25941C81.7804 6.67412 82.1657 6.95568 82.601 6.95568L86.015 6.95568C86.9792 6.95568 87.385 8.18557 86.6102 8.75932L83.8155 10.8288C83.4717 11.0834 83.328 11.5285 83.4579 11.9361L84.5176 15.2602C84.8124 16.1849 83.7497 16.9452 82.9697 16.3676L80.2479 14.352C79.8943 14.0902 79.4112 14.0902 79.0577 14.352L76.3359 16.3676C75.5559 16.9452 74.4932 16.1849 74.788 15.2602L75.8477 11.9361C75.9776 11.5285 75.8339 11.0834 75.49 10.8288L72.6954 8.75932C71.9206 8.18557 72.3264 6.95568 73.2905 6.95568L76.7046 6.95568C77.1399 6.95568 77.5252 6.67412 77.6574 6.25941L78.7 2.98868Z" fill="url(#paint3_linear_36_296)"/>
<path d="M101.745 2.98868C102.041 2.06032 103.355 2.06032 103.65 2.98868L104.693 6.25941C104.825 6.67412 105.211 6.95568 105.646 6.95568L109.06 6.95568C110.024 6.95568 110.43 8.18557 109.655 8.75932L106.86 10.8288C106.517 11.0834 106.373 11.5285 106.503 11.9361L107.562 15.2602C107.857 16.1849 106.795 16.9452 106.015 16.3676L103.293 14.352C102.939 14.0902 102.456 14.0902 102.103 14.352L99.3808 16.3676C98.6008 16.9452 97.5381 16.1849 97.8329 15.2602L98.8926 11.9361C99.0225 11.5285 98.8788 11.0834 98.5349 10.8288L95.7403 8.75932C94.9655 8.18557 95.3713 6.95568 96.3354 6.95568L99.7495 6.95568C100.185 6.95568 100.57 6.67412 100.702 6.25941L101.745 2.98868Z" fill="url(#paint4_linear_36_296)"/>
<defs>
<linearGradient id="paint0_linear_36_296" x1="0.641602" y1="10.0664" x2="20.3944" y2="10.0664" gradientUnits="userSpaceOnUse">
<stop stop-color="#FFCD66"/>
<stop offset="1" stop-color="#FFE0A3"/>
</linearGradient>
<linearGradient id="paint1_linear_36_296" x1="23.6865" y1="10.0664" x2="43.4394" y2="10.0664" gradientUnits="userSpaceOnUse">
<stop stop-color="#FFCD66"/>
<stop offset="1" stop-color="#FFE0A3"/>
</linearGradient>
<linearGradient id="paint2_linear_36_296" x1="46.7314" y1="10.0664" x2="66.4843" y2="10.0664" gradientUnits="userSpaceOnUse">
<stop stop-color="#FFCD66"/>
<stop offset="1" stop-color="#FFE0A3"/>
</linearGradient>
<linearGradient id="paint3_linear_36_296" x1="69.7764" y1="10.0664" x2="89.5292" y2="10.0664" gradientUnits="userSpaceOnUse">
<stop stop-color="#FFCD66"/>
<stop offset="1" stop-color="#FFE0A3"/>
</linearGradient>
<linearGradient id="paint4_linear_36_296" x1="92.8213" y1="10.0664" x2="112.574" y2="10.0664" gradientUnits="userSpaceOnUse">
<stop stop-color="#FFCD66"/>
<stop offset="1" stop-color="#FFE0A3"/>
</linearGradient>
</defs>
</svg>
