<svg width="25" height="25" viewBox="0 0 25 25" fill="none" xmlns="http://www.w3.org/2000/svg">
<path fill-rule="evenodd" clip-rule="evenodd" d="M12.5 25C19.4036 25 25 19.4036 25 12.5C25 5.59644 19.4036 0 12.5 0C5.59644 0 0 5.59644 0 12.5C0 19.4036 5.59644 25 12.5 25ZM10.1925 9.11111C10.1925 9.95556 10.8379 10.4978 12.8448 11.0222C14.8517 11.5467 17 12.4089 17 14.9333C17 16.7556 15.6297 17.76 13.9057 18.0889V20H11.2534V18.0711C9.55599 17.7067 8.10609 16.6133 8 14.6667H9.94499C10.0422 15.7156 10.7583 16.5333 12.5796 16.5333C14.5334 16.5333 14.9666 15.5556 14.9666 14.9422C14.9666 14.1156 14.5246 13.3333 12.3143 12.8C9.84774 12.2044 8.15914 11.1822 8.15914 9.12889C8.15914 7.41333 9.53831 6.29333 11.2534 5.92V4H13.9057V5.94667C15.7534 6.4 16.6817 7.80444 16.7436 9.33333H14.7898C14.7367 8.22222 14.1532 7.46667 12.5796 7.46667C11.0855 7.46667 10.1925 8.14222 10.1925 9.11111Z" fill="white"/>
</svg>
